<svg width="64" height="64" viewBox="0 0 64 64" fill="none" xmlns="http://www.w3.org/2000/svg">
<rect width="64" height="64" rx="32" fill="#F5F6F7"/>
<path d="M42.8868 21.1132C43.6289 21.8554 44 22.7531 44 23.8065V40.2234C44 41.2589 43.6289 42.1446 42.8868 42.8868C42.1446 43.6289 41.2469 44 40.1935 44H23.7766C22.7411 44 21.8554 43.6289 21.1132 42.8868C20.3711 42.1446 20 41.2589 20 40.2234V23.8065C20 22.7531 20.3711 21.8554 21.1132 21.1132C21.8554 20.3711 22.7531 20 23.8065 20H40.1935C41.2409 19.994 42.1387 20.3651 42.8868 21.1132ZM42.8209 23.8065C42.8209 23.0823 42.5636 22.4718 42.0489 21.9631C41.5342 21.4604 40.9117 21.203 40.1935 21.203H23.8065C23.0823 21.203 22.4658 21.4544 21.9511 21.9631C21.4364 22.4718 21.1791 23.0823 21.1791 23.8065V40.2234C21.1791 40.9476 21.4364 41.5581 21.9511 42.0668C22.4658 42.5756 23.0883 42.8269 23.8065 42.8269H40.1935C40.9177 42.8269 41.5342 42.5756 42.0489 42.0668C42.5636 41.5641 42.8209 40.9476 42.8209 40.2234V23.8065ZM35.2618 24.2554C36.2733 24.6983 37.1591 25.3028 37.9252 26.0688C38.6913 26.8349 39.2958 27.7267 39.7387 28.7501C40.1815 29.7736 40.403 30.8629 40.403 32.018C40.403 33.1731 40.1815 34.2624 39.7387 35.2858C39.2958 36.3092 38.6913 37.195 37.9252 37.9491C37.1591 38.7033 36.2673 39.3018 35.2439 39.7446C34.2264 40.1875 33.1372 40.409 31.982 40.409C30.8269 40.409 29.7377 40.1875 28.7142 39.7446C27.6908 39.3018 26.805 38.7033 26.0509 37.9491C25.2968 37.195 24.6983 36.3092 24.2554 35.2858C23.8125 34.2624 23.591 33.1731 23.591 32.018C23.591 30.8629 23.8125 29.7736 24.2554 28.7501C24.6983 27.7267 25.2968 26.8349 26.0509 26.0688C26.805 25.3028 27.6908 24.6983 28.7142 24.2554C29.7377 23.8125 30.8269 23.591 31.982 23.591C33.1611 23.591 34.2504 23.8125 35.2618 24.2554ZM34.801 38.6554C35.6688 38.2723 36.4289 37.7576 37.0933 37.1052C37.7516 36.4529 38.2723 35.6928 38.6434 34.813C39.0145 33.9332 39.2 32.9995 39.2 32.012C39.2 31.0185 39.0145 30.0848 38.6434 29.211C38.2723 28.3312 37.7576 27.5711 37.0933 26.9187C36.4349 26.2663 35.6688 25.7516 34.801 25.3686C33.9332 24.9855 32.9935 24.794 31.982 24.794C30.9885 24.794 30.0549 24.9855 29.181 25.3686C28.3012 25.7516 27.5411 26.2663 26.8888 26.9187C26.2364 27.5711 25.7277 28.3312 25.3566 29.211C24.9855 30.0908 24.8 31.0244 24.8 32.012C24.8 33.0055 24.9855 33.9392 25.3566 34.813C25.7277 35.6928 26.2364 36.4529 26.8888 37.1052C27.5411 37.7576 28.3012 38.2723 29.181 38.6554C30.0608 39.0384 30.9945 39.2299 31.982 39.2299C32.9935 39.2299 33.9332 39.0384 34.801 38.6554ZM35.7885 28.7322C35.9142 28.816 35.992 28.9417 36.0339 29.1033C36.0758 29.2708 36.0519 29.4264 35.9741 29.5701L32.5027 35.0823C32.4429 35.184 32.3651 35.2559 32.2693 35.2978C32.1736 35.3397 32.0778 35.3576 31.9761 35.3576C31.8743 35.3576 31.7786 35.3337 31.6948 35.2798C31.611 35.2259 31.5392 35.1601 31.4793 35.0763L28.008 29.5641C27.9242 29.4205 27.9002 29.2648 27.9302 29.0973C27.9601 28.9297 28.0499 28.81 28.1935 28.7262C28.3372 28.6424 28.4868 28.6244 28.6424 28.6663C28.798 28.7082 28.9237 28.792 29.0314 28.9117L31.982 33.6519L34.9566 28.9177C35.0404 28.792 35.1601 28.7142 35.3277 28.6723C35.4893 28.6244 35.6449 28.6484 35.7885 28.7322Z" fill="black"/>
</svg>
